{"title":"Cat run 2011 DVDrip English Klam","uid":7034483,"size":1538512271,"categoryP":"video","categoryS":"movies","magnet":"?xt=urn:btih:ef17b09894dfde8ad7812a6595cfd661da9cba93&amp;dn=Cat+run+2011+DVDrip+English+Klam&amp;tr=udp%3A%2F%2Ftracker.openbittorrent.com%3A80&amp;tr=udp%3A%2F%2Fopen.demonii.com%3A1337&amp;tr=udp%3A%2F%2Ftracker.coppersurfer.tk%3A6969&amp;tr=udp%3A%2F%2Fexodus.desync.com%3A6969","seeders":0,"leechers":1,"uploader":"Klambake","files":-1,"time":1329331726,"description":"With: Paz Vega, Christopher McDonald and Tony Curran\n\nAnthony en Julian, twee doelloze nietsnutten, besluiten een detectivebureau te beginnen. Hun eerste zaak betreft die van Catalina, een sexy stijlvolle escortdame, die cruciale bewijsstukken heeft in een internationaal schandaal. De twee detectives worden belast met het beschermen van &quot;Cat&quot;. Al snel krijgen ze te maken met de Russische maffia, een corrupte Amerikaanse senator en een meedogenloze huurmoordenaar die niets uit de weg gaan om te voorkomen dat de waarheid naar buiten wordt gebracht.\n\nWhen a sexy, high-end escort holds the key evidence to a scandalous government cover-up, two bumbling young detectives become her unlikely protectors from a ruthless assassin hired to silence her. \n\n------------------------ Dutch Friends ------------------------\n---------------------------------------------------------------\n- Bezoek ook eens mijn vrienden op: &lt;a href=&quot; http://www.Film-Test.nl&quot; rel=&quot;nofollow&quot; target=&quot;_NEW&quot;&gt; http://www.Film-Test.nl&lt;/a&gt; --\n----- voor mijn Nederlandse Sync. ondertitels ---- en meer ----\n------- http://www.Film-Test.nl ---- voor Films en meer -------\n---------------------------------------------------------------\n\nGeneral:\n\nComplete name                    : Cat run\\Cat run.avi\nFormat                           : AVI\nFormat/Info                      : Audio Video Interleave\nFile size                        : 1.43 GiB\nDuration                         : 1h 41mn\nOverall bit rate                 : 2 018 Kbps\n\nVideo:\n\nFormat                           : MPEG-4 Visual\nFormat profile                   : Simple@L3\nFormat settings, BVOP            : No\nFormat settings, QPel            : No\nFormat settings, GMC             : No warppoints\nFormat settings, Matrix          : Default (H.263)\nCodec ID                         : XVID\nCodec ID/Hint                    : XviD\nDuration                         : 1h 41mn\nBit rate                         : 1 559 Kbps\nWidth                            : 720 pixels\nHeight                           : 304 pixels\nDisplay aspect ratio             : 2.35:1\nFrame rate                       : 25.000 fps\nColor space                      : YUV\nChroma subsampling               : 4:2:0\nBit depth                        : 8 bits\nScan type                        : Progressive\nCompression mode                 : Lossy\nBits/(Pixel*Frame)               : 0.285\nStream size                      : 1.11 GiB (77%)\nWriting library                  : XviD 1.1.2 (UTC 2006-11-01)\n\nAudio:\n\nFormat                           : AC-3\nFormat/Info                      : Audio Coding 3\nMode extension                   : CM (complete main)\nCodec ID                         : 2000\nDuration                         : 1h 41mn\nBit rate mode                    : Constant\nBit rate                         : 448 Kbps\nChannel(s)                       : 6 channels\nChannel positions                : Front: L C R, Side: L R, LFE\nSampling rate                    : 48.0 KHz\nBit depth                        : 16 bits\nCompression mode                 : Lossy\nStream size                      : 326 MiB (22%)\nAlignment                        : Aligned on interleaves\nInterleave, duration             : 32 ms (0.80 video frame)\nInterleave, preload duration     : 256 ms\n\n\n","torrent":{"xt":"urn:btih:ef17b09894dfde8ad7812a6595cfd661da9cba93","amp;dn":"Cat+run+2011+DVDrip+English+Klam","amp;tr":["udp%3A%2F%2Ftracker.openbittorrent.com%3A80","udp%3A%2F%2Fopen.demonii.com%3A1337","udp%3A%2F%2Ftracker.coppersurfer.tk%3A6969","udp%3A%2F%2Fexodus.desync.com%3A6969"],"infoHash":"ef17b09894dfde8ad7812a6595cfd661da9cba93","infoHashBuffer":{"type":"Buffer","data":[239,23,176,152,148,223,222,138,215,129,42,101,149,207,214,97,218,156,186,147]},"announce":[],"urlList":[]}}